<?xml version="1.0" encoding="UTF-8" standalone="no"?>
<!-- Created with Inkscape (http://www.inkscape.org/) -->
<svg
   xmlns:svg="http://www.w3.org/2000/svg"
   xmlns="http://www.w3.org/2000/svg"
   version="1.0"
   width="750.00006"
   height="600.00006"
   id="svg3882">
  <defs
     id="defs3884" />
  <rect
     width="750.00006"
     height="600.00006"
     rx="37.500004"
     ry="37.500004"
     x="0"
     y="0"
     id="rect2398"
     style="fill:#000000;fill-opacity:1;stroke:none;stroke-width:22.5;stroke-linecap:square;stroke-linejoin:round;stroke-miterlimit:2;stroke-dasharray:none;stroke-dashoffset:0;stroke-opacity:1" />
  <path
     d="M 375.00003,31.250061 C 316.52503,31.250061 266.30315,39.874664 211.8837,71.294758 C 157.66474,102.59909 104.806,119.17825 31.250003,119.17825 L 31.250003,436.12426 C 31.250003,464.27909 31.304808,464.29051 49.78299,478.53015 C 82.069684,503.41087 375.00003,568.75007 375.00003,568.75007 C 375.00003,568.75007 667.93036,503.41087 700.21706,478.53015 C 718.69525,464.29051 718.75006,464.27909 718.75006,436.12426 L 718.75006,119.17825 C 645.19405,119.17825 592.3353,102.59909 538.11638,71.294758 C 483.69693,39.874664 433.47503,31.250061 375.00003,31.250061 z"
     id="rect4804"
     style="fill:#ffffff;fill-opacity:1;stroke:none;stroke-width:22.5;stroke-linecap:square;stroke-linejoin:round;stroke-miterlimit:2;stroke-dasharray:none;stroke-dashoffset:0;stroke-opacity:1" />
  <path
     d="M 277.43395,360.52396 L 277.43395,420.67963 L 239.61679,420.67963 L 239.61679,360.52396 L 120.02002,360.52396 L 120.02002,337.82267 L 239.61679,179.3204 L 277.43395,179.3204 L 277.43395,325.93885 L 300.49802,325.93885 L 300.49802,360.52396 L 277.43395,360.52396 z M 239.61679,235.15567 L 170.80934,325.93885 L 239.61679,325.93885 L 239.61679,235.15567 z M 375.31882,420.67963 L 375.31882,225.07476 L 353.3431,225.07476 L 353.3431,194.45825 L 355.86058,194.45825 C 360.90283,194.45848 365.94512,193.13745 370.98744,190.49515 C 376.02968,187.85331 380.2328,184.1284 383.59682,179.3204 L 414.21333,179.3204 L 414.21333,420.67963 L 375.31882,420.67963 z M 630.88146,343.59418 C 630.88127,354.63891 628.65879,365.08443 624.21399,374.93076 C 619.76883,384.77718 613.76463,393.42345 606.20137,400.86959 C 598.63778,408.31577 589.93288,414.19905 580.08664,418.51943 C 570.24013,422.83982 559.79461,425.00001 548.75007,425.00002 C 537.69798,425.00001 527.2488,422.83982 517.4025,418.51943 C 507.55605,414.19905 498.85115,408.31577 491.28777,400.86959 C 483.7243,393.42345 477.72193,384.77718 473.28065,374.93076 C 468.8393,365.08443 466.61865,354.63891 466.61867,343.59418 C 466.61865,332.0659 469.01886,321.67902 473.81932,312.4335 C 478.61972,303.1882 485.46491,294.96335 494.35492,287.7589 C 482.58465,275.27059 476.69955,260.62012 476.69958,243.80745 C 476.69955,234.44129 478.62155,225.61546 482.4656,217.32994 C 486.30957,209.04482 491.53324,201.71959 498.13663,195.35421 C 504.73992,188.98929 512.36381,184.00564 521.00832,180.40324 C 529.65268,176.80133 538.89992,175.00025 548.75007,175.00001 C 558.35815,175.00025 567.60355,176.80133 576.48631,180.40324 C 585.36881,184.00564 593.11362,188.98929 599.72078,195.35421 C 606.32763,201.71959 611.61177,209.04482 615.57321,217.32994 C 619.53431,225.61546 621.51494,234.44129 621.51512,243.80745 C 621.51494,252.21387 619.89342,260.07962 616.65056,267.4047 C 613.40735,274.73009 608.78464,281.51481 602.78243,287.7589 C 612.14861,294.96335 619.17336,303.3073 623.85671,312.79079 C 628.53969,322.27449 630.88127,332.54228 630.88146,343.59418 L 630.88146,343.59418 z M 582.60962,242.7301 C 582.60948,234.80041 579.30781,228.01385 572.7046,222.3704 C 566.10113,216.72734 558.11629,213.90571 548.75007,213.90551 C 539.38363,213.90571 531.39879,216.72734 524.79553,222.3704 C 518.19211,228.01385 514.89044,234.80041 514.89052,242.7301 C 514.89044,249.93459 518.19211,256.11834 524.79553,261.2814 C 531.39879,266.44476 539.38363,269.02637 548.75007,269.02622 C 558.11629,269.02637 566.10113,266.44476 572.7046,261.2814 C 579.30781,256.11834 582.60948,249.93459 582.60962,242.7301 L 582.60962,242.7301 z M 592.69053,344.30875 C 592.69038,339.26654 591.49027,334.52475 589.0902,330.08334 C 586.68984,325.64212 583.5091,321.79994 579.54797,318.5568 C 575.58656,315.31387 570.96386,312.73226 565.67984,310.81198 C 560.39558,308.89192 554.75233,307.93183 548.75007,307.93172 C 542.74759,307.93183 537.1648,308.89192 532.00168,310.81198 C 526.83838,312.73226 522.27431,315.31387 518.30945,318.5568 C 514.34444,321.79994 511.22233,325.64212 508.94311,330.08334 C 506.66375,334.52475 505.52411,339.26654 505.52417,344.30875 C 505.52411,350.07667 506.66375,355.48173 508.94311,360.52396 C 511.22233,365.5663 514.34444,370.00761 518.30945,373.84791 C 522.27431,377.6883 526.83838,380.68949 532.00168,382.85147 C 537.1648,385.01354 542.74759,386.09455 548.75007,386.09451 C 554.75233,386.09455 560.45605,385.01354 565.86123,382.85147 C 571.26617,380.68949 575.94934,377.6883 579.91075,373.84791 C 583.87188,370.00761 586.99216,365.5663 589.27159,360.52396 C 591.55073,355.48173 592.69038,350.07667 592.69053,344.30875 L 592.69053,344.30875 z"
     id="text1421"
     style="font-size:5.40345669px;font-style:normal;font-weight:normal;line-height:125%;fill:#000000;fill-opacity:1;stroke:none;stroke-width:1px;stroke-linecap:butt;stroke-linejoin:miter;stroke-opacity:1;font-family:Bitstream Vera Sans" />
</svg>
