<?xml version="1.0" encoding="iso-8859-1"?>
<!-- Generator: Adobe Illustrator 19.0.0, SVG Export Plug-In . SVG Version: 6.00 Build 0)  -->
<svg version="1.1" id="Layer_1" xmlns="http://www.w3.org/2000/svg" xmlns:xlink="http://www.w3.org/1999/xlink" x="0px" y="0px"
	 viewBox="0 0 512 512" style="enable-background:new 0 0 512 512;" xml:space="preserve">
<g>
	<path style="fill:#963737;" d="M476.722,228.712c-14.25,9.718-54.217,33.661-111.027,40.762l8.982,143.719
		c86.49-43.245,73.045-119.801,128.058-157.501c3.372-2.311,3.654-7.208,0.763-10.099l-15.805-15.805
		C484.761,226.856,480.148,226.375,476.722,228.712z"/>
	<path style="fill:#963737;" d="M302.817,179.649h-80.842c-4.961,0-8.982-4.022-8.982-8.982v-26.947h-35.93v26.947
		c0,4.961-4.022,8.982-8.982,8.982H87.238c-9.922,0-17.965,8.043-17.965,17.965v17.965h251.509v-17.965
		C320.782,187.693,312.739,179.649,302.817,179.649z"/>
</g>
<rect x="177.066" y="143.719" style="fill:#803030;" width="35.93" height="26.947"/>
<path style="fill:#AA4141;" d="M212.992,152.702h-35.93c-9.922,0-17.965-8.043-17.965-17.965l0,0
	c0-9.922,8.043-17.965,17.965-17.965h35.93c9.922,0,17.965,8.043,17.965,17.965l0,0
	C230.957,144.659,222.915,152.702,212.992,152.702z"/>
<path style="fill:#803030;" d="M356.677,216.356l-17.895-1.553l13.72-157.794c0.877-10.154-2.43-19.882-9.316-27.394
	s-16.289-11.65-26.483-11.65H73.352c-10.193,0-19.596,4.136-26.483,11.649s-10.193,17.241-9.316,27.394l13.72,157.794l-17.895,1.553
	L19.658,58.561c-1.307-15.009,3.789-29.982,13.965-41.088C43.808,6.369,58.282,0,73.352,0h243.352
	c15.07,0,29.544,6.369,39.728,17.474c10.176,11.106,15.272,26.079,13.965,41.088L356.677,216.356z"/>
<path style="fill:#963737;" d="M293.834,512H96.22c-4.961,0-8.982-4.022-8.982-8.982V476.07h215.579v26.947
	C302.817,507.979,298.796,512,293.834,512z"/>
<path style="fill:#803030;" d="M159.098,503.018V476.07h-71.86v26.947c0,4.961,4.022,8.982,8.982,8.982h71.86
	C163.119,512,159.098,507.978,159.098,503.018z"/>
<path style="fill:#AA4141;" d="M293.705,485.053H96.351c-53.028,0-94.515-45.696-89.407-98.477L22.79,222.831
	c0.89-9.208,8.63-16.235,17.881-16.235h308.714c9.252,0,16.99,7.027,17.882,16.235l15.846,163.745
	C388.22,439.358,346.732,485.053,293.705,485.053z"/>
<g>
	<path style="fill:#963737;" d="M132.626,386.576l13.209-163.746c0.743-9.208,7.194-16.235,14.905-16.235H40.671
		c-9.252,0-16.99,7.025-17.882,16.235L6.944,386.576c-5.109,52.782,36.379,98.477,89.407,98.477h110.802
		C162.951,485.053,128.37,439.358,132.626,386.576z"/>
	<path style="fill:#963737;" d="M186.045,134.737c0-9.922,8.044-17.965,17.965-17.965h-26.947c-9.921,0-17.965,8.043-17.965,17.965
		c0,9.921,8.044,17.965,17.965,17.965h26.947C194.089,152.702,186.045,144.659,186.045,134.737z"/>
</g>
<g>
</g>
<g>
</g>
<g>
</g>
<g>
</g>
<g>
</g>
<g>
</g>
<g>
</g>
<g>
</g>
<g>
</g>
<g>
</g>
<g>
</g>
<g>
</g>
<g>
</g>
<g>
</g>
<g>
</g>
</svg>
